<svg width="695" height="165" viewBox="0 0 695 165" fill="none" xmlns="http://www.w3.org/2000/svg">
<path d="M0 0H26.7026L45.0703 44.2673H45.9965L64.3642 0H91.0668V78.1547H70.0751V32.9715H69.4577L51.8618 77.5442H39.205L21.6091 32.6662H20.9917V78.1547H0V0Z" fill="#E5E8F1"/>
<path d="M121.763 78.1547H98.6107L124.696 0H154.023L180.108 78.1547H156.955L139.668 21.5231H139.051L121.763 78.1547ZM117.441 47.3202H160.968V63.1954H117.441V47.3202Z" fill="#E5E8F1"/>
<path d="M187.719 78.1547V0H221.831C227.696 0 232.828 1.14485 237.227 3.43454C241.626 5.72422 245.048 8.94251 247.491 13.0894C249.935 17.2363 251.157 22.0828 251.157 27.6289C251.157 33.2259 249.897 38.0724 247.376 42.1684C244.88 46.2645 241.369 49.4191 236.841 51.6325C232.339 53.8459 227.079 54.9525 221.059 54.9525H200.685V38.4668H216.737C219.258 38.4668 221.406 38.0343 223.181 37.1693C224.982 36.2789 226.358 35.0195 227.31 33.3913C228.288 31.7631 228.776 29.8423 228.776 27.6289C228.776 25.3901 228.288 23.482 227.31 21.9047C226.358 20.3019 224.982 19.0807 223.181 18.2412C221.406 17.3762 219.258 16.9437 216.737 16.9437H209.174V78.1547H187.719Z" fill="#E5E8F1"/>
<path d="M314.595 0V17.0963H280.484V78.1547H259.029V0H314.595Z" fill="#E5E8F1"/>
<path d="M333.146 78.1547H309.994L336.079 0H365.406L391.491 78.1547H368.338L351.051 21.5231H350.434L333.146 78.1547ZM328.824 47.3202H372.351V63.1954H328.824V47.3202Z" fill="#E5E8F1"/>
<path d="M399.102 78.1547V0H433.214C439.079 0 444.211 1.14485 448.61 3.43454C453.009 5.72422 456.431 8.94251 458.874 13.0894C461.318 17.2363 462.54 22.0828 462.54 27.6289C462.54 33.2259 461.28 38.0724 458.759 42.1684C456.263 46.2645 452.752 49.4191 448.224 51.6325C443.722 53.8459 438.462 54.9525 432.442 54.9525H412.068V38.4668H428.12C430.641 38.4668 432.789 38.0343 434.564 37.1693C436.365 36.2789 437.741 35.0195 438.693 33.3913C439.671 31.7631 440.159 29.8423 440.159 27.6289C440.159 25.3901 439.671 23.482 438.693 21.9047C437.741 20.3019 436.365 19.0807 434.564 18.2412C432.789 17.3762 430.641 16.9437 428.12 16.9437H420.557V78.1547H399.102Z" fill="#E5E8F1"/>
<path d="M471.053 0H492.508V40.9091H493.125L521.217 0H539.43V78.1547H517.976V37.093H517.513L488.958 78.1547H471.053V0Z" fill="#E5E8F1"/>
<path d="M548.059 17.0963V0H616.745V17.0963H592.975V78.1547H571.829V17.0963H548.059Z" fill="#E5E8F1"/>
<path d="M636.656 78.1547H613.503L639.588 0H668.915L695 78.1547H671.847L654.56 21.5231H653.943L636.656 78.1547ZM632.334 47.3202H675.861V63.1954H632.334V47.3202Z" fill="#E5E8F1"/>
<path d="M0.228924 82.2161H28.1317L47.3249 128.473H48.2926L67.4859 82.2161H95.3886V163.883H73.4535V116.67H72.8083L54.4216 163.245H41.196L22.8092 116.351H22.164V163.883H0.228924V82.2161Z" fill="#E5E8F1"/>
<path d="M186.012 123.05C186.012 132.142 184.224 139.811 180.649 146.059C177.074 152.279 172.249 156.998 166.174 160.215C160.099 163.405 153.324 165 145.851 165C138.325 165 131.524 163.392 125.449 160.175C119.4 156.932 114.589 152.2 111.013 145.979C107.465 139.732 105.691 132.088 105.691 123.05C105.691 113.958 107.465 106.302 111.013 100.081C114.589 93.8335 119.4 89.1148 125.449 85.9247C131.524 82.7079 138.325 81.0996 145.851 81.0996C153.324 81.0996 160.099 82.7079 166.174 85.9247C172.249 89.1148 177.074 93.8335 180.649 100.081C184.224 106.302 186.012 113.958 186.012 123.05ZM162.948 123.05C162.948 118.158 162.289 114.038 160.972 110.688C159.682 107.312 157.76 104.76 155.206 103.032C152.679 101.277 149.561 100.4 145.851 100.4C142.142 100.4 139.01 101.277 136.456 103.032C133.93 104.76 132.008 107.312 130.69 110.688C129.4 114.038 128.755 118.158 128.755 123.05C128.755 127.941 129.4 132.075 130.69 135.451C132.008 138.801 133.93 141.353 136.456 143.108C139.01 144.836 142.142 145.7 145.851 145.7C149.561 145.7 152.679 144.836 155.206 143.108C157.76 141.353 159.682 138.801 160.972 135.451C162.289 132.075 162.948 127.941 162.948 123.05Z" fill="#E5E8F1"/>
<path d="M196.385 163.883V82.2161H218.804V114.117H248.481V82.2161H270.9V163.883H248.481V131.982H218.804V163.883H196.385Z" fill="#E5E8F1"/>
<path d="M295.738 109.651H312.835C319.797 109.651 325.872 110.755 331.06 112.961C336.275 115.168 340.321 118.278 343.197 122.292C346.1 126.306 347.538 131.025 347.511 136.448C347.538 141.872 346.1 146.643 343.197 150.764C340.321 154.885 336.275 158.101 331.06 160.414C325.872 162.727 319.797 163.883 312.835 163.883H282.029V82.2161H304.448V146.497H312.835C315.55 146.497 317.821 146.059 319.649 145.181C321.504 144.304 322.902 143.094 323.842 141.553C324.81 140.011 325.281 138.256 325.254 136.289C325.281 133.497 324.232 131.185 322.109 129.35C319.985 127.489 316.894 126.559 312.835 126.559H295.738V109.651Z" fill="#E5E8F1"/>
<path d="M411.16 163.883L385.837 130.866H382.692V163.883H360.273V82.2161H382.692V113.001H385.595L409.305 82.2161H437.53L406.079 121.455L439.304 163.883H411.16Z" fill="#E5E8F1"/>
<path d="M445.322 82.2161H467.741V124.964H468.386L497.741 82.2161H516.773V163.883H494.354V120.976H493.87L464.032 163.883H445.322V82.2161Z" fill="#E5E8F1"/>
<path d="M527.377 163.883V82.2161H549.796V114.117H579.473V82.2161H601.892V163.883H579.473V131.982H549.796V163.883H527.377Z" fill="#E5E8F1"/>
<path d="M633.988 163.883H609.795L637.053 82.2161H667.697L694.955 163.883H670.762L652.698 104.707H652.053L633.988 163.883ZM629.472 131.663H674.955V148.252H629.472V131.663Z" fill="#E5E8F1"/>
</svg>

